<?xml version="1.0" encoding="UTF-8" standalone="no"?>
<svg
   width="32"
   height="32"
   version="1.1"
   id="svg28"
   sodipodi:docname="wow.exe@32x32.svg"
   inkscape:version="1.2.2 (b0a8486541, 2022-12-01)"
   inkscape:export-filename="wow.exe@32x32.png"
   inkscape:export-xdpi="96"
   inkscape:export-ydpi="96"
   xmlns:inkscape="http://www.inkscape.org/namespaces/inkscape"
   xmlns:sodipodi="http://sodipodi.sourceforge.net/DTD/sodipodi-0.dtd"
   xmlns="http://www.w3.org/2000/svg"
   xmlns:svg="http://www.w3.org/2000/svg">
  <defs
     id="defs32" />
  <sodipodi:namedview
     id="namedview30"
     pagecolor="#ffffff"
     bordercolor="#000000"
     borderopacity="0.25"
     inkscape:showpageshadow="2"
     inkscape:pageopacity="0.0"
     inkscape:pagecheckerboard="0"
     inkscape:deskcolor="#d1d1d1"
     showgrid="false"
     inkscape:zoom="12.171875"
     inkscape:cx="-0.57509628"
     inkscape:cy="14.664955"
     inkscape:window-width="1536"
     inkscape:window-height="975"
     inkscape:window-x="26"
     inkscape:window-y="23"
     inkscape:window-maximized="0"
     inkscape:current-layer="g26" />
  <g
     transform="matrix(.62468752 0 0 .62468752 1.0074995 1.0068748)"
     id="g26">
    <g
       transform="matrix(0.89474534,0,0,0.89474534,204.04818,5.1428686)"
       style="fill:#e2ab13"
       id="g10">
      <path
         d="m -213.47826,2.061844 -6.938,0.031 a 1.238,1.238 0 0 0 -1.25,1.25 l -0.062,6.3440003 a 1.238,1.238 0 0 0 2.094,0.9059997 l 7,-6.375 a 1.237,1.237 0 0 0 -0.844,-2.156 z"
         style="fill:#e2ab13;stroke:#28170b;stroke-width:0.6"
         id="path2" />
      <path
         d="m -180.72856,10.478551 -0.031,-6.9379998 a 1.235,1.235 0 0 0 -1.25,-1.25 l -6.344,-0.062 a 1.24,1.24 0 0 0 -0.906,2.094 l 6.375,6.9999998 c 0.345,0.381 0.89,0.509 1.37,0.322 a 1.24,1.24 0 0 0 0.786,-1.166 z"
         style="fill:#e2ab13;stroke:#28170b;stroke-width:0.6"
         id="path4" />
      <path
         d="m -221.72754,31.841276 0.031,6.938 a 1.238,1.238 0 0 0 1.25,1.25 l 6.344,0.062 c 0.498,0.005 0.949,-0.289 1.147,-0.746 a 1.24,1.24 0 0 0 -0.241,-1.348 l -6.375,-7 a 1.24,1.24 0 0 0 -2.156,0.844 z"
         style="fill:#e2ab13;stroke:#28170b;stroke-width:0.6"
         id="path6" />
      <path
         d="m -180.72856,31.802102 -0.031,6.938 a 1.238,1.238 0 0 1 -1.25,1.25 l -6.344,0.062 c -0.498,0.005 -0.949,-0.289 -1.147,-0.746 a 1.24,1.24 0 0 1 0.241,-1.348 l 6.375,-7 a 1.24,1.24 0 0 1 2.156,0.844 z"
         style="fill:#e2ab13;stroke:#28170b;stroke-width:0.6"
         id="path8" />
    </g>
    <g
       transform="matrix(0.89474534,0,0,0.89474534,29.260683,50.659937)"
       style="fill:#3a4c7a"
       id="g20">
      <path
         d="m 14.715,-29.794 c 0.003,11.346 -8.94,20.547 -19.976,20.55 -11.036,0.004 -19.986,-9.192 -19.989,-20.538 v -0.013 c -0.003,-11.347 8.94,-20.548 19.976,-20.551 11.036,-0.003 19.985,9.191 19.989,20.538 z"
         style="fill:#3a4c7a"
         id="path12" />
      <path
         d="m -3.312,-50.062 -8,0.5 a 1.056,1.056 0 0 0 -0.5,0.156 l -7,4.5 a 1.058,1.058 0 0 0 -0.031,1.781 c 0.923,0.622 1.837,1.338 2.094,2 0.553,1.466 1.181,3.614 1.719,5.469 a 74.9,74.9 0 0 0 0.75,2.469 c 0.113,0.342 0.206,0.648 0.312,0.906 0.106,0.258 0.173,0.454 0.438,0.75 0.04,0.034 0.081,0.065 0.125,0.094 0.473,0.385 0.966,0.596 1.562,0.781 0.596,0.185 1.284,0.331 1.938,0.438 0.654,0.107 1.281,0.146 1.844,0.156 0.563,0.01 0.96,0.133 1.625,-0.281 0.032,-0.019 0.064,-0.04 0.094,-0.062 0.285,-0.227 0.314,-0.379 0.375,-0.5 0.061,-0.121 0.113,-0.222 0.156,-0.344 0.087,-0.244 0.166,-0.518 0.25,-0.844 a 32.922,32.922 0 0 0 0.844,-4.781 c 0.072,-0.708 0.158,-1.177 0,-1.812 -0.008,-0.033 0.01,-0.06 0,-0.094 H -4.75 c -0.16,-0.773 -0.57,-1.892 -1.281,-3.156 a 9.806,9.806 0 0 0 -2.5,-2.906 c 0.036,-0.038 0.117,-0.106 0.312,-0.188 l 3.907,0.03 c 0.117,-10e-4 0.233,-0.023 0.344,-0.062 0.092,-0.03 0.189,0.034 0.656,-0.188 0.234,-0.11 0.52,-0.364 0.656,-0.625 0.136,-0.261 0.193,-0.482 0.219,-0.719 l 0.25,-2.281 a 1.06,1.06 0 0 0 -1.125,-1.187 z"
         style="fill:#3a4c7a"
         id="path14" />
      <path
         id="z"
         d="m -3.25,-49 -0.25,2.278 c -0.07,0.648 -0.343,0.49 -0.823,0.646 l -4.116,-0.015 c -1.214,0.39 -1.347,1.036 -1.265,1.588 2.306,1.282 3.746,4.921 3.955,6.002 0.296,1.042 -0.845,6.927 -1.25,7.25 -0.683,0.425 -4.73,-0.17 -5.75,-1 -0.548,-0.615 -1.837,-6.167 -3,-9.25 -0.428,-1.103 -1.576,-1.878 -2.5,-2.5 l 7,-4.5 z"
         style="fill:#3a4c7a" />
      <path
         d="m -23.219,-37.406 a 0.93,0.93 0 0 0 -0.812,0.688 l -2.406,8.219 a 0.928,0.928 0 0 0 0.375,1.031 c 0.923,0.621 1.878,1.346 2.156,2.062 a 0.886,0.886 0 0 0 0.094,0.156 c 0.008,0.027 0.019,0.039 0.031,0.094 0.043,0.186 0.093,0.509 0.156,0.875 0.127,0.732 0.302,1.725 0.531,2.75 0.229,1.025 0.511,2.084 0.938,3 0.427,0.916 0.998,1.764 2,2.094 -0.243,-0.08 -0.041,0.01 0.094,0.094 0.135,0.084 0.312,0.199 0.531,0.344 0.438,0.29 0.998,0.654 1.562,1.031 0.564,0.377 1.131,0.777 1.594,1.062 0.231,0.143 0.441,0.248 0.625,0.344 0.092,0.048 0.175,0.085 0.281,0.125 0.106,0.04 0.168,0.139 0.594,0.062 0.49,-0.088 0.641,-0.361 0.719,-0.5 0.078,-0.139 0.095,-0.244 0.125,-0.344 0.059,-0.199 0.12,-0.398 0.156,-0.625 0.073,-0.455 0.126,-1.016 0.188,-1.562 0.062,-0.546 0.125,-1.099 0.188,-1.469 0.026,-0.152 0.046,-0.219 0.062,-0.281 0.069,-0.059 0.167,-0.051 0.219,-0.125 0.204,-0.287 0.227,-0.585 0.219,-0.812 -0.017,-0.455 -0.162,-0.803 -0.344,-1.188 -0.364,-0.771 -0.96,-1.658 -1.625,-2.594 -1.283,-1.807 -2.75,-3.586 -3.406,-4.312 -0.055,-0.18 -0.086,-0.365 -0.156,-0.562 -0.087,-0.246 -0.185,-0.514 -0.25,-0.75 1.383,0.59 2.816,1.122 4.406,1.312 a 0.916,0.916 0 0 0 0.281,-0.031 5.827,5.827 0 0 0 1.438,-0.438 c 0.27,-0.122 0.556,-0.247 0.812,-0.469 0.256,-0.222 0.541,-0.578 0.594,-1.062 a 0.93,0.93 0 0 0 -0.156,-0.625 c -1.777,-2.656 -4.331,-3.335 -7,-4.312 L -19.938,-36 a 0.928,0.928 0 0 0 -0.344,-0.25 l -2.469,-1.062 a 0.912,0.912 0 0 0 -0.468,-0.094 z"
         style="fill:#3a4c7a"
         id="path17" />
      <path
         id="A"
         d="m -18.975,-33.338 c 2.82,1.052 5.133,1.588 6.779,4.048 -0.07,0.647 -1.486,1.083 -2.061,1.177 -1.708,-0.205 -3.28,-0.818 -4.823,-1.518 -1.526,-0.329 -0.198,2.363 -0.116,2.915 1.09,1.186 6.496,7.814 5.012,7.994 -0.364,0.045 -0.521,4.395 -0.86,4.455 -0.339,0.06 -4.462,-2.938 -4.832,-3.059 -2.377,-0.783 -2.767,-8.199 -3.155,-8.421 -0.427,-1.103 -1.576,-1.878 -2.5,-2.5 l 2.404,-8.212 2.482,1.061 z"
         style="fill:#3a4c7a" />
    </g>
    <path
       d="m 24,3.253645 c -11.43574,0 -20.7187231,9.296404 -20.7187231,20.747355 0,11.450056 9.2829831,20.747355 20.7187231,20.747355 11.43574,0 20.718723,-9.297299 20.718723,-20.747355 C 44.718723,12.550049 35.43574,3.253645 24,3.253645 Z m -0.08411,4.1381972 c 9.073612,0 16.413208,7.3565958 16.413208,16.4686828 0,9.112087 -7.339596,16.497315 -16.413208,16.497315 -9.072718,0 -16.4409457,-7.385228 -16.4409457,-16.497315 0,-9.111192 7.3673327,-16.4686828 16.4409457,-16.4686828 z"
       style="fill:#e2ab13;stroke:#28170b;stroke-width:0.447373"
       id="path22" />
  </g>
</svg>
